<svg xmlns="http://www.w3.org/2000/svg" width="93" height="89" viewBox="0 0 93 89">
    <defs>
        <linearGradient id="a" x1="50.001%" x2="50.001%" y1="100%" y2="0%">
            <stop offset="0%" stop-color="gray" stop-opacity=".25"/>
            <stop offset="54%" stop-color="gray" stop-opacity=".12"/>
            <stop offset="100%" stop-color="gray" stop-opacity=".1"/>
        </linearGradient>
        <linearGradient id="b" x1="49.996%" x2="49.996%" y1="100%" y2="0%">
            <stop offset="0%" stop-color="gray" stop-opacity=".25"/>
            <stop offset="54%" stop-color="gray" stop-opacity=".12"/>
            <stop offset="100%" stop-color="gray" stop-opacity=".1"/>
        </linearGradient>
        <linearGradient id="c" x1="71.153%" x2="28.836%" y1="95.689%" y2="4.351%">
            <stop offset="0%" stop-color="gray" stop-opacity=".25"/>
            <stop offset="54%" stop-color="gray" stop-opacity=".12"/>
            <stop offset="100%" stop-color="gray" stop-opacity=".1"/>
        </linearGradient>
        <linearGradient id="d" x1="50%" x2="50%" y1="99.991%" y2="0%">
            <stop offset="0%" stop-color="gray" stop-opacity=".25"/>
            <stop offset="54%" stop-color="gray" stop-opacity=".12"/>
            <stop offset="100%" stop-color="gray" stop-opacity=".1"/>
        </linearGradient>
        <linearGradient id="e" x1="50%" x2="50%" y1="99.991%" y2="-.009%">
            <stop offset="0%" stop-color="gray" stop-opacity=".25"/>
            <stop offset="54%" stop-color="gray" stop-opacity=".12"/>
            <stop offset="100%" stop-color="gray" stop-opacity=".1"/>
        </linearGradient>
        <linearGradient id="f" x1="72.19%" x2="40.496%" y1="96.801%" y2="14.943%">
            <stop offset="0%" stop-color="gray" stop-opacity=".25"/>
            <stop offset="54%" stop-color="gray" stop-opacity=".12"/>
            <stop offset="100%" stop-color="gray" stop-opacity=".1"/>
        </linearGradient>
        <linearGradient id="g" x1="50.003%" x2="50.003%" y1="99.998%" y2="0%">
            <stop offset="0%" stop-color="gray" stop-opacity=".25"/>
            <stop offset="54%" stop-color="gray" stop-opacity=".12"/>
            <stop offset="100%" stop-color="gray" stop-opacity=".1"/>
        </linearGradient>
    </defs>
    <g fill="none" fill-rule="nonzero">
        <path fill="url(#a)" d="M13.13 8.625l53.504.128.176 73.62-53.504-.127z" opacity=".5" transform="rotate(-24.52 41.669 26.592)"/>
        <path fill="#FFF" d="M8.745 22.302L56.498.775l30.2 65.43L38.945 87.73z"/>
        <path fill="url(#b)" d="M20.189 10.436l25.985.116.028 6.246-25.985-.116z" transform="rotate(-24.52 30.895 13.117)"/>
        <path fill="url(#c)" d="M28.307 4.347c-2 .9-2.865 3.263-1.93 5.28.935 2.018 3.315 2.925 5.316 2.026 2-.9 2.865-3.263 1.93-5.28-.935-2.018-3.315-2.925-5.316-2.026zm2.67 5.76a2.383 2.383 0 0 1-2.602-.361 2.294 2.294 0 0 1-.64-2.509 2.35 2.35 0 0 1 2.117-1.53A2.358 2.358 0 0 1 32.09 7.06c.263.55.293 1.18.084 1.751a2.304 2.304 0 0 1-1.198 1.297v-.002z" transform="translate(0 -1)"/>
        <path fill="#8A8A8A" d="M20.293 15.013l23.19-10.454 2.503 5.421-23.19 10.454z"/>
        <path fill="#8A8A8A" d="M30.048 5.271c-1.288.503-2.096 1.622-2.046 2.835.05 1.212.947 2.28 2.273 2.704 1.326.425 2.82.123 3.785-.765.966-.887 1.212-2.186.624-3.29-.802-1.507-2.878-2.171-4.636-1.484zm2.29 4.303c-1.014.397-2.211.013-2.674-.856-.463-.87-.016-1.895.999-2.292 1.014-.397 2.211-.014 2.674.856.463.869.015 1.895-.999 2.292z"/>
        <path fill="url(#d)" d="M17.692 30.046l11.215.05.05 11.128-11.215-.05z" transform="rotate(-24.52 21.024 35.135)"/>
        <path fill="url(#e)" d="M26.97 50.053l11.214.05.05 11.129-11.215-.05z" transform="rotate(-24.52 30.3 55.142)"/>
        <path fill="#69F0AE" d="M16.425 32.088l9.476-4.272 4.322 9.365-9.476 4.271z"/>
        <path fill="#8A8A8A" d="M25.582 51.925l9.475-4.271 4.323 9.364-9.476 4.272z"/>
        <path fill="#E0E0E0" d="M33.47 27.897l12.987-5.855.414.896-12.988 5.855zM34.09 29.24l21.446-9.667.413.896-21.446 9.667zM34.71 30.584l19.934-8.987.414.896-19.935 8.987zM42.626 47.736l12.989-5.855.413.895-12.988 5.855zM43.247 49.078l21.446-9.667.413.895-21.446 9.668zM43.866 50.422l19.935-8.986.414.895-19.935 8.987z"/>
        <path fill="url(#f)" d="M21.583 35.82l2.433.776.8-4.596 1.184.318L24.669 38 21 36.421z" transform="translate(0 -1)"/>
        <path fill="#FFF" d="M21.584 35.185l2.433.645.8-3.83 1.183.265L24.669 37 21 35.685zM29.584 55.185l2.433.645.8-3.83 1.183.265L32.669 57 29 55.685z"/>
        <path fill="#E0E0E0" d="M40.877 69.072l30.298-13.659 4.606 9.98-30.298 13.659z"/>
        <path fill="#8A8A8A" d="M68.746 63.17c-1.19-.334-2.41-.27-2.79 1.069-.127.451-.142 1.152-.634 1.385-.725.342-1.599-.343-2.228-.622-1.172-.52-2.374-.166-3.053.927-.344.554-.491 1.192-.608 1.823-.05.274-.057.612-.174.87-.225.494-.928.45-1.39.43-.1 0-.203-.011-.307-.022a2.647 2.647 0 0 0 .516-1.705c-.03-1.001-.69-2.097-1.846-1.974-1.036.106-1.764 1.089-1.648 2.084.099.845.659 1.5 1.377 1.903-.353.153-.73.272-1.062.431a4.476 4.476 0 0 0-.453.248c-1.007-.477-2.33-.567-3.237-.08-.438.236-.118.937.323.699.69-.371 1.451-.278 2.172-.042l.06.02c-.07.09-.134.186-.188.287-.407.778 0 2.009.992 2.094 1.397.117 1.463-1.7.704-2.422a1.957 1.957 0 0 0-.1-.09c.315-.148.654-.26.954-.386.262-.11.51-.245.742-.406l.054.014c1.067.237 2.733.311 3.117-.96.33-1.104.36-3.448 2.134-3.231.723.088 1.317.634 2.005.832.616.18 1.328.188 1.834-.258.417-.368.51-.911.638-1.419.066-.262.13-.575.347-.762.393-.337 1.041-.139 1.479-.016.478.133.755-.586.27-.721zM54.88 72.113c-.235.23-.485.047-.61-.193-.153-.291-.087-.579.107-.836.032-.042.066-.082.102-.12.466.296.846.72.406 1.149h-.005zm.826-5.71c.484-.441 1.158-.344 1.446.263.288.607.16 1.463-.243 1.998-.054.07-.113.136-.178.197a2.275 2.275 0 0 1-.766-.43c-.572-.508-.896-1.446-.255-2.03l-.004.003z"/>
        <path fill="url(#g)" d="M73.088 23.568L64.606 26.8c-1.596-.116-4.952-.54-8.284-2.075-3.708-1.709-7.957-1.704-11.56.086-8.302.194-12.871-.846-15.31-1.83l.644-1.29-8.599-3.275L0 9v38.59l7.523 3.277 4.036-9.461 8.862 4.005 1.702-4.225 5.819 4.22.396.326-.546.553a2.733 2.733 0 0 0 0 3.822c.49.505 1.17.791 1.881.791.712 0 1.392-.286 1.882-.791l-.299.308a2.733 2.733 0 0 0 0 3.821c.49.505 1.17.792 1.881.792.712 0 1.392-.287 1.881-.792l1.724-1.75-1.184 1.2a2.733 2.733 0 0 0 0 3.822c.49.505 1.17.792 1.882.792.711 0 1.392-.287 1.88-.792l1.702-1.728-.716.727a1.91 1.91 0 0 0 0 2.67c.342.353.817.553 1.314.553.497 0 .972-.2 1.314-.553l1.135-1.152c1.95 1.391 3.527 2.407 4.299 2.67 3.219 1.09 3.219-1.094 3.219-1.094 4.3 2.184 6.45-2.183 6.45-2.183 5.374 2.183 5.374-3.276 5.374-3.276 1.343.91 2.312.493 2.988-.308.922-1.087 1.035-2.62.402-3.85l5.137-4.64 2.221 4.44 8.863-4.006 4.035 8.743L93 51.927V13.741l-19.912 9.827z" transform="translate(0 -1)"/>
        <path fill="#D0D0D0" d="M72 43.53L63 52l-7-13.765L72 34z"/>
        <path fill="#FFF" d="M27.341 21s3.053 4.08 21.138 3.06l10.57 15.297 7.082 7.69c1.112 1.208 1.175 3.04.083 4.265-.664.744-1.618 1.134-2.939.284 0 0 0 5.099-5.284 3.06 0 0-2.113 4.078-6.34 2.039 0 0 0 2.04-3.171 1.02-3.17-1.02-20.082-14.278-20.082-14.278L21 38.338 27.341 21z"/>
        <path fill="#D0D0D0" d="M63.808 27.253s-4.456 0-8.863-2.033c-4.006-1.847-8.672-1.612-12.37.813-3.013 1.976-5.623 5.249-5.574 10.653 0 0 4.01 4.193 8.249-4.192h3.093s2.98 10.482 11.344 9.432C68.052 40.876 70 39.83 70 39.83l-6.192-12.577zM36.926 47.14a2.527 2.527 0 0 1 0 3.595l-2.078 2.054a2.588 2.588 0 0 1-3.638 0 2.527 2.527 0 0 1 0-3.595l2.078-2.054a2.588 2.588 0 0 1 3.638 0zM33.576 43.26a2.527 2.527 0 0 1 0 3.595l-2.078 2.054a2.588 2.588 0 0 1-3.638 0 2.527 2.527 0 0 1 0-3.595l2.078-2.054a2.588 2.588 0 0 1 3.638 0z"/>
        <path fill="#D0D0D0" d="M41.603 49.707a2.527 2.527 0 0 1 0 3.595l-2.598 2.568a2.588 2.588 0 0 1-3.638 0 2.527 2.527 0 0 1 0-3.596l2.598-2.567a2.588 2.588 0 0 1 3.638 0zM44.115 53.331a1.765 1.765 0 0 1 0 2.51l-1.617 1.599a1.807 1.807 0 0 1-2.54 0 1.765 1.765 0 0 1 0-2.511l1.616-1.598a1.807 1.807 0 0 1 2.54 0z"/>
        <path fill="#FFF" d="M83 44.84L74 49l-9-22.88L73 23zM11 39.84L20 44l9-22.88L21 18z"/>
        <path fill="#333" d="M2 10l21 9.23L9.35 50 2 46.923z"/>
        <path fill="#848484" d="M93 15l-21 9.231L85.65 55 93 51.923z"/>
    </g>
</svg>
