<svg xmlns="http://www.w3.org/2000/svg" width="130" height="83" viewBox="0 0 130 83">
    <g fill="none" fill-rule="evenodd" opacity=".77">
        <ellipse cx="62.5" cy="68" fill="#F5F5F5" fill-rule="nonzero" rx="62.5" ry="14"/>
        <path fill="#4C4C4C" fill-rule="nonzero" d="M74.284 40s4.074 4.04 1.773 10.033C73.757 56.027 80 66 80 66s-.067-.01-.19-.032c-8.368-1.47-12.525-10.96-7.872-18.007 1.729-2.62 3.15-5.694 2.346-7.961z"/>
        <path fill="#000" fill-rule="nonzero" d="M74.284 40s4.074 4.04 1.773 10.033C73.757 56.027 80 66 80 66s-.067-.01-.19-.032c-8.368-1.47-12.525-10.96-7.872-18.007 1.729-2.62 3.15-5.694 2.346-7.961z" opacity=".2"/>
        <path fill="#4C4C4C" fill-rule="nonzero" d="M67 57.051s4.645-.745 5.069 3.438C72.492 64.67 81 65.246 81 65.246l-.16.107c-7.025 4.63-13.739 2.949-12.729-3.198.377-2.285.343-4.583-1.111-5.104z"/>
        <path fill="#F5F5F5" fill-rule="nonzero" d="M67 57.051s4.645-.745 5.069 3.438C72.492 64.67 81 65.246 81 65.246l-.16.107c-7.025 4.63-13.739 2.949-12.729-3.198.377-2.285.343-4.583-1.111-5.104z" opacity=".2"/>
        <path stroke="#535461" d="M67 57s3.606.765 3.31 3.939c-.296 3.173 5.354 6.976 10.69 3.961"/>
        <path fill="#0D0C0C" d="M81 0h11v11H81z" opacity=".416"/>
        <path fill="#A8A8A8" fill-rule="nonzero" d="M103 65.928s-7.132-1.41-9.035-3.292c-1.902-1.88-10.46-5.171-11.412-2.82-.952 2.35-12.838 10.344-4.748 11.755 8.09 1.41 19.02 1.88 21.397.94 2.378-.939 3.798-6.583 3.798-6.583z"/>
        <path fill="#000" fill-rule="nonzero" d="M77.799 70.734c8.083 1.386 19.02 1.848 21.397.925 1.81-.704 3.073-4.085 3.566-5.659l.238.049s-1.426 5.544-3.804 6.47c-2.378.925-13.317.461-21.397-.925-2.333-.4-3-1.34-2.75-2.53.189.776 1.007 1.372 2.75 1.67z" opacity=".2"/>
        <path fill="#FFF" fill-rule="nonzero" d="M106 12.043s1.864 2.83 1.465 4.177c-.4 1.348 4.393.54 4.393.54s.133-5.256 1.065-6.469c.932-1.212-6.923 1.752-6.923 1.752zM95 13.67s-3.887-3.074-3.753-4.227c0 0-2.948-5.38-4.02-2.69-1.073 2.69 2.01 5.508 2.01 5.508L92.99 17 95 13.67z"/>
        <path fill="#535461" fill-rule="nonzero" d="M91.557 60s-3.474 1.958-4.89 1.382c-1.414-.576-1.929.345-1.543.69.386.346 8.748 3.34 10.678 2.88 1.93-.46.948-4.233.948-4.233L91.557 60zM109.335 68.519s-.777 3.564-3.469 3.5c0 0-4.067-.39-2.512 1.166C104.91 74.741 114 75 114 75s0-5.315-1.675-6.481c-1.674-1.167-2.99 0-2.99 0z"/>
        <path fill="#242424" fill-rule="nonzero" d="M104 45.703l.355 8.513s0 4.014 1.303 5.838C106.96 61.878 108.5 71 108.5 71h4.5s-1.303-12.284-2.368-13.743c0 0-.474-10.825 1.184-13.257L104 45.703z"/>
        <path fill="#000" fill-rule="nonzero" d="M104 45.703l.355 8.513s0 4.014 1.303 5.838C106.96 61.878 108.5 71 108.5 71h4.5s-1.303-12.284-2.368-13.743c0 0-.474-10.825 1.184-13.257L104 45.703z" opacity=".1"/>
        <path fill="#242424" fill-rule="nonzero" d="M113.228 36.627s2.826 6.902-2.335 8.91c-5.162 2.008-14.502 1.757-14.502 1.757l-.492 14.557s-5.776.753-5.899-1.13V44.785s.123-1.756 3.933-3.262c3.81-1.506 8.971-2.26 8.971-2.26L103.15 36l10.078.627z"/>
        <path fill="#AAA" fill-rule="nonzero" d="M108.768 14.037a5.888 5.888 0 0 1 2.937.422c.766.328 1.5.843 1.67 1.635.198.939-.021 3.043-.272 4.825a33.793 33.793 0 0 0-.153 8.429c.097.897.282 1.781.55 2.641C114.063 33.706 115 40 115 40s-8.25-3.179-12.375-1.272c0 0-.562-13.033-.625-17.293-.048-3.298 4.063-7.057 5.438-7.184.805-.074.528-.129 1.33-.214z"/>
        <path fill="#000" fill-rule="nonzero" d="M108.768 15.036a6.103 6.103 0 0 1 2.937.405c.766.316 1.5.811 1.67 1.573.198.902-.021 2.926-.272 4.639a31.255 31.255 0 0 0-.153 8.105c.125 1.123.306 2.103.55 2.54C114.25 33.641 115 40 115 40s-8.25-3.057-12.375-1.223c0 0-.562-12.532-.625-16.628-.048-3.172 4.063-6.786 5.438-6.908.805-.071.528-.124 1.33-.205z" opacity=".1"/>
        <path fill="#000" fill-rule="nonzero" d="M110.738 21l-8.618-.416s-.548-3.621.696-3.584l8.529.255s1.82 1.873-.607 3.745z" opacity=".1"/>
        <path fill="#AAA" fill-rule="nonzero" d="M111.673 21l-10.337-.482s-8.039-2.29-10.336-4.82c0 0 .128-4.457 2.68-4.698l6.037 4.18a6.77 6.77 0 0 0 3.627 1.187l8.967.296s1.914 2.168-.638 4.337z"/>
        <path fill="#000" fill-rule="nonzero" d="M111.792 12.251c.158-1.143.73-1.523 1.131-1.99.932-1.086-6.923 1.568-6.923 1.568.406.565.762 1.158 1.065 1.774a5.193 5.193 0 0 0 1.997.397c1.153 0 1.901-1.13 2.73-1.749z" opacity=".1"/>
        <circle cx="108.5" cy="9.5" r="4.5" fill="#FFF" fill-rule="nonzero"/>
        <path fill="#000" fill-rule="nonzero" d="M106.384 7.133c-.464-.53-.688-1.235-.9-1.919L105 3.647c.657.405 1.358-.505 2.111-.632.54-.09 1.05.24 1.547.476 2.158 1.029 4.97.518 6.705 2.204.238.214.421.485.536.79.08.287.113.586.097.885a10.58 10.58 0 0 1-.227 2.375c-.412 1.743-1.515 3.207-2.59 4.611-.203.267-.433.55-.753.625-.624.145-1.106-.558-1.347-1.175a12.921 12.921 0 0 1-.703-2.538c-.063-.368-.113-.747-.289-1.072-.376-.694-1.302-1.352-1.864-1.89-.562-.539-1.322-.585-1.839-1.173z" opacity=".1"/>
        <path fill="#000" fill-rule="nonzero" d="M106.384 7.133c-.464-.53-.688-1.235-.9-1.919L105 3.647c.657.405 1.358-.505 2.111-.632.54-.09 1.05.24 1.547.476 2.158 1.029 4.97.518 6.705 2.204.238.214.421.485.536.79.08.287.113.586.097.885a10.58 10.58 0 0 1-.227 2.375c-.412 1.743-1.515 3.207-2.59 4.611-.203.267-.433.55-.753.625-.624.145-1.106-.558-1.347-1.175a12.921 12.921 0 0 1-.703-2.538c-.063-.368-.113-.747-.289-1.072-.376-.694-1.302-1.352-1.864-1.89-.562-.539-1.322-.585-1.839-1.173z"/>
        <ellipse cx="110.5" cy="10" fill="#FFF" fill-rule="nonzero" rx="1" ry="1"/>
        <path fill="#625E5E" fill-rule="nonzero" d="M113 31.798s-.275.475-1.647.396c-1.373-.08-5.353-.238-5.353 0" opacity=".1"/>
        <path fill="#FFF" fill-rule="nonzero" d="M103.354 73.435c-.216-.173-.323-.313-.348-.435-.031.136.064.313.348.54C104.909 74.79 114 75 114 75v-.104c-.059-.001-9.096-.213-10.646-1.46zM95.803 65.665c-1.93.554-10.292-3.047-10.678-3.463a.46.46 0 0 1-.107-.202.527.527 0 0 0 .107.48c.386.415 8.748 4.016 10.678 3.462.993-.285 1.214-1.625 1.196-2.859-.02 1.15-.278 2.316-1.196 2.582z" opacity=".5"/>
        <path fill="#67647E" fill-rule="nonzero" d="M63 64.202a.203.203 0 1 0 0-.405.203.203 0 0 0 0 .405z"/>
        <path fill="#000" d="M41 6h11v11H41zM19 6h11v11H19zM33 27h11v11H33zM117 72h11v11h-11zM23 50h11v11H23z"/>
        <path fill="#0D0C0C" d="M36 17h11v11H36zM23 27h11v11H23zM55 28h9v9h-9zM32 38h12v12H32z" opacity=".416"/>
        <path fill="#8D8D8D" d="M119 61h11v11h-11z"/>
        <path fill="#0D0C0C" d="M52 9h8v8h-8z" opacity=".205"/>
        <path fill="#333" d="M30 4h13v13H30z"/>
        <path fill="#333" d="M25 16h11v11H25zM117 50h11v11h-11zM32 49h13v13H32zM22 38h11v11H22zM56 16h12v12H56z"/>
        <path stroke="#535461" stroke-width="2" d="M14.03 60.986s1.213-3.637-.226-6.314a5.163 5.163 0 0 1-.524-3.605 8.87 8.87 0 0 1 .575-1.692"/>
        <path fill="#2C2C2C" fill-rule="nonzero" d="M12.889 47.753c0 .416.81 1.622.81 1.622s.809-1.206.809-1.622c0-.416-.362-.753-.81-.753-.447 0-.81.337-.81.753zM11.658 50.415c.22.393 1.5 1.071 1.5 1.071s-.023-1.6-.247-1.992c-.225-.39-.686-.5-1.03-.247-.345.254-.445.776-.223 1.168zM11.446 54.283c.413.195 1.983.06 1.983.06s-.82-1.265-1.232-1.46c-.41-.185-.902-.027-1.107.354-.205.38-.048.846.354 1.046h.002zM12.368 57.484c.358.231 1.87.335 1.87.335s-.557-1.236-.913-1.467c-.357-.206-.835-.13-1.089.17-.253.302-.194.724.136.962h-.004zM15.06 51.353c-.335.325-1.901.66-1.901.66s.383-1.543.719-1.872a.852.852 0 0 1 1.414.398.839.839 0 0 1-.232.81v.004zM15.694 55.074c-.415.196-1.996.061-1.996.061s.825-1.272 1.24-1.468c.412-.174.896-.013 1.1.364.202.378.05.838-.344 1.043zM15.838 58.54c-.357.23-1.87.335-1.87.335s.558-1.236.914-1.468c.357-.205.835-.13 1.088.171.254.301.194.723-.136.961h.004z"/>
        <path fill="#A8A8A8" fill-rule="nonzero" d="M11 59.97s4.57-.138 5.946-1.097c1.376-.959 7.028-2.103 7.37-.566.341 1.537 6.867 7.646 1.704 7.691-5.164.046-11.986-.785-13.36-1.604C11.283 63.576 11 59.97 11 59.97z"/>
        <path fill="#000" fill-rule="nonzero" d="M26.12 65.456c-5.16.041-11.988-.79-13.364-1.613-1.047-.627-1.47-2.875-1.603-3.912H11s.289 3.622 1.664 4.444c1.376.822 8.205 1.66 13.36 1.624 1.489-.012 2.003-.532 1.975-1.304-.202.461-.77.753-1.879.761z" opacity=".2"/>
        <path fill="#333" d="M44 27h11v11H44z"/>
    </g>
</svg>
