<svg xmlns="http://www.w3.org/2000/svg" width="1680" height="757" viewBox="0 0 1680 757">
    <g fill="none" fill-rule="evenodd">
        <path fill="#FFF" d="M0 0h1680v643H0z"/>
        <path fill="#F5F5F5" d="M1498.892 555l-202 202L1090 550.108 1295.108 345l202-202 206.446 206.446L1910 555.892 1704.892 761l-206-206zM478.76 553.992L419.264 613 358 552.238l59.748-59.258-.748-.742L477.736 432 539 492.762l-.252.25L600 553.762 539.264 614l-60.504-60.008zM98.168 629.506L174.165 554 252 631.333 174.835 708l-77.003-76.506L21.835 707-56 629.667l76.25-75.758-1.25-1.242L96.165 476 174 553.333l-76.25 75.758.418.415z" opacity=".4"/>
        <path fill="#F5F5F5" d="M97.117 358l-140 140L-186 354.883-44.117 213l140-140L239 216.117l143 143L240.117 501l-143-143z" opacity=".67"/>
        <path fill="#F5F5F5" d="M1140.23 215l-52 52-53.23-53.23 52.77-52.77 52-52 53.23 53.23 53 53-52.77 52.77-53-53z"/>
        <path fill="#F5F5F5" d="M1334.23 139l-52 52-53.23-53.23L1281.77 85l52-52L1387 86.23l53 53-52.77 52.77-53-53z" opacity=".34"/>
        <path fill="#F5F5F5" d="M463.23 287l-52 52L358 285.77 410.77 233l52-52L516 234.23l53 53L516.23 340l-53-53z" opacity=".3"/>
    </g>
</svg>
