<svg xmlns="http://www.w3.org/2000/svg" xmlns:xlink="http://www.w3.org/1999/xlink" width="179" height="169" viewBox="0 0 179 169">
    <defs>
        <path id="a" d="M0 .279h24.416v24.96H0z"/>
        <path id="c" d="M.065.116h34.142v10.59H.065z"/>
        <path id="e" d="M.371.035h9.997v10.417H.371z"/>
    </defs>
    <g fill="none" fill-rule="evenodd" opacity=".062">
        <path fill="#231F20" d="M53.529 150.344c.231.35.539.344.878.189-.16-.187-.32-.373-.478-.56-7.548-6.697-11.33-15.022-11.024-25.68 3.942 3.706 7.687 6.886 10.59 10.92 2.125 2.952 3.467 6.22 4.127 9.782 1.234 6.652-.166 8.73-6.731 10.211-9.46 2.135-17.135-2.633-25.32-6.378 3.852-1.795 7.642-2.502 11.557-2.781 5.966-.426 11.294 1.472 16.4 4.297M127.835 154.535c-4.89-1.692-5.18-2.958-4.76-7.588.733-8.062 7.626-18.502 14.798-22.653-.02 3.164-.156 6.259-.772 9.334-1.27 6.342-4.85 11.221-9.44 15.489-.372.212-1.053.419-.694.903.323.435.758-.148 1.09-.416 9.964-5.503 22.165-3.934 27.339-.693-4.143 1.804-8.101 3.727-12.202 5.263-5.026 1.881-10.226 2.137-15.36.36"/>
        <path fill="#231F20" d="M34.486 136.449c.44.385.84.532 1.363.218-5.178-7.461-5.845-15.432-2.936-24.164 2.281 4.193 4.805 7.9 6.584 12.001 2.129 4.908 2.439 9.912.62 15.022-.446 1.25-1.137 1.885-2.415 2.1-4.354.733-8.551.358-12.625-1.433-4.447-1.956-7.983-5.16-11.67-8.159-.566-.46-1.434-.72-1.605-1.548 8.46-1.113 16.167.263 22.684 5.963M136.803 134.406c-.909-9.284 4.948-15.915 8.71-23.868 2.844 9.562 2.306 18.211-3.103 26.449 7.359-6.727 15.91-8.398 25.771-7.078-4.268 3.119-8.02 6.238-12.138 8.877-3.397 2.178-7.115 3.182-11.11 3.194-6.15.017-7.53-1.455-8.13-7.574"/>
        <path fill="#231F20" d="M24.094 119.534c.504-.883.114-1.438-.044-1.988-.953-3.336-1.07-6.71-.604-10.126.212-1.555 1.056-2.997.868-4.62.58-.057.615-.385.403-.838 1.237-1.106 1.088-2.954 2.412-4.197 1.677 4.738 3.73 9.29 4.233 14.272.429 4.248-.373 8.267-2.717 11.943-.504.79-.988 1.332-2.125 1.294-5.079-.17-9.596-1.64-13.475-4.927-3.502-2.967-6.121-6.635-9.11-10.207 8.191.39 14.98 3.213 20.16 9.394M157.01 124.648c-6.032 1.13-6.337 1.33-8.452-4.62-2.781-7.83.657-14.893 3.332-22.263 3.996 6.987 4.85 14.078 2.804 21.545 5.363-6.122 12.164-8.718 20.372-9.287-2.373 2.739-4.475 5.222-6.64 7.652-3.072 3.45-6.751 6.1-11.415 6.973"/>
        <g transform="matrix(-1 0 0 1 179 84.991)">
            <mask id="b" fill="#fff">
                <use xlink:href="#a"/>
            </mask>
            <path fill="#231F20" d="M16.117 25.062c1.197.36 2.107.198 2.977-.73 1.569-1.678 2.846-3.51 3.75-5.626 2.555-5.982 1.333-12.097.886-18.427-5.221 5.44-7.785 11.667-7.746 18.995C12.864 12.264 7.156 8.585 0 6.09c1.428 2.972 2.669 5.707 4.04 8.375 2.61 5.087 6.402 8.887 12.077 10.597" mask="url(#b)"/>
        </g>
        <path fill="#231F20" d="M23.591 103.23l.025-.023.032-.03.003.044-.036.005c-1.529 2.22-2.509 4.812-4.628 6.64-.71.612-1.285.828-2.224.555-3.004-.872-5.645-2.312-7.927-4.469C4.5 101.852 2.79 96.246 0 90.905c7.468 2.473 13.145 6.59 16.323 13.766-.526-7.762 2.475-13.946 7.595-19.68.496 4.774.86 9.198.563 13.666-.083 1.249-1.051 2.378-.474 3.69-.646.033-.626.409-.416.882zM24.044 104.105c.032 0 .055-.007.088-.008.007.014.01.028.017.04-.023.023-.043.047-.066.069-.016-.035-.025-.067-.04-.1"/>
        <path fill="#231F20" d="M13.907 88.548c1.205-6.944 4.946-11.987 10.68-16.33-.613 3.872-1.081 7.283-1.708 10.663-.813 4.392-2.906 7.996-6.282 10.87-1.666 1.418-2.977 1.361-4.753.185-7.239-4.795-8.174-12.696-9.877-20.54 5.995 3.584 10.166 8.318 11.94 15.152M168.618 94.119c-1.683 1.03-2.823.885-4.307-.209-6.34-4.675-7.52-12.06-7.932-20.71 5.322 3.931 9.188 8.69 10.377 15.315 2.031-6.741 7.094-12.035 12.244-14.206-.706 2.893-1.283 5.76-2.114 8.554-1.392 4.687-3.905 8.582-8.268 11.256"/>
        <g transform="matrix(-1 0 0 1 134.742 157.7)">
            <mask id="d" fill="#fff">
                <use xlink:href="#c"/>
            </mask>
            <path fill="#231F20" d="M.065 8.763c1.983.315 3.72.6 5.46.868 5.165.795 10.33 1.616 15.562.606 5.06-.976 9.4-3.336 13.12-7.37C21.661-2.295 10.477-.116.065 8.763" mask="url(#d)"/>
        </g>
        <path fill="#231F20" d="M77.698 160.497c-3.042 3.588-6.568 5.875-10.67 7.108-7.306 2.196-14.397-.196-21.786-1.012 9.908-9.141 20.548-11.347 32.456-6.096M123.923 134.12c-3.16 12.923-11.299 20.968-24.588 24.563.318-3.783 1.715-7.025 3.747-10.032 4.97-7.357 13.228-10.366 20.841-14.532M57.044 134.12c4.077 2.305 8.13 4.588 11.881 7.4 5.445 4.08 8.773 9.701 9.756 17.163-12.368-3.792-19.238-12.338-21.637-24.564M168.747 79.519c-.66.53-1.154.77-1.997.33-2.96-1.543-5.5-3.553-7.009-6.694-1.833-3.817-2.9-7.93-4.345-12.4 5.667 2.993 9.65 7.003 11.828 13.347.746-6.869 4.04-11.493 8.825-15.64-.432 3.757-.576 7.152-1.137 10.517-.73 4.388-2.813 7.84-6.165 10.54M25.571 60.775c-1.056 3.348-1.997 6.333-2.94 9.316-1.196 3.79-3.4 6.74-6.688 8.821-2.571 1.628-2.772 1.62-4.933-.456-2.197-2.109-3.743-4.636-4.596-7.616-1.12-3.905-1.008-7.955-1.496-12.378 5.047 4.067 8.017 8.926 8.921 15.61 2.145-6.392 6.07-10.402 11.732-13.297"/>
        <path fill="#231F20" d="M164.756 66.156c-5.848-1.77-11.196-7.867-13.294-15.436 5.154 1.653 9.62 4.277 12.74 9.21 1.902-9.704 2.474-11.176 5.96-15.224.447 3.712 1.033 7.108.964 10.573-.073 3.736-1.39 6.986-3.586 9.934-.76 1.02-1.464 1.343-2.784.943"/>
        <path fill="#231F20" d="M157.315 51.09c-3.914-1.204-8.486-5.91-10.771-11.116 4.483.494 8.263 2.568 11.796 6.328-.997-5.475.284-9.812 2.714-14.369.662 2.798 1.224 5.182 1.789 7.565.741 3.13.5 6.168-.702 9.127-1.295 3.19-1.724 3.42-4.826 2.465M32.456 39.857c-1.892 2.653-3.448 4.894-5.062 7.08-1.636 2.216-3.804 3.519-6.248 4.258-2.612.79-3.046.528-4.212-2.191-2.498-5.829-.551-11.288.983-17.07 2.364 4.677 3.683 9.283 2.409 14.99 3.234-4.63 7.146-6.413 12.13-7.067"/>
        <path fill="#231F20" d="M37.374 31.751c-1.885 1.684-3.656 3.332-5.498 4.881-.69.58-1.496 1.127-2.327 1.36-5.98 1.671-6.832 1.182-6.927-5.238-.058-3.942 2.126-7.077 3.72-10.646 1.415 4.08 1.538 7.981.21 12.138 5.255-2.803 8.122-3.466 10.822-2.495M153.361 38.808c-5.15.12-8.2-3.618-11.735-7.175 3.993-.478 7.342.482 10.853 2.95-1.44-4.402-1.203-8.177.167-12.475 1.13 2.708 2.117 4.97 3.021 7.272.894 2.276.837 4.625.424 7.032-.3 1.745-1.167 2.36-2.73 2.396"/>
        <path fill="#231F20" d="M146.666 28.918c-4.77.533-8.16-2.202-11.924-4.83 3.937-.933 7.43-.761 11.18 1.34-2.04-3.699-2.691-7.175-1.479-11.18 1.434 2.278 2.802 4.272 3.976 6.374.965 1.728 1.186 3.643 1.03 5.655-.145 1.859-1.153 2.459-2.783 2.641M53.11 18.29c-1.941.787-3.751 1.549-5.59 2.257-1.72.662-3.557.668-5.366.45-2.134-.257-2.989-1.22-2.784-2.955.439-3.72 3.223-6.114 6.314-8.708.113 3.354-.825 6.073-3.022 8.821 3.68-.788 7.009-1.503 10.448.135"/>
        <path fill="#231F20" d="M137.722 22.688c-4.518 1.32-8.081-.84-11.832-3.143 3.517-1.537 6.878-1.422 10.495-.04-1.988-3.395-3.478-6.62-2.89-11.153 1.437 1.894 2.496 3.348 3.613 4.751 1.62 2.035 2.62 4.278 2.548 7.023-.04 1.461-.504 2.143-1.934 2.562M59.995 12.77c-1.586.426-2.834.755-4.078 1.095-2.174.595-4.285.522-6.36-.408-1.136-.509-1.519-1.14-1.31-2.417.605-3.7 3.585-5.447 6.637-7.601-.493 3.335-.889 4.189-3.567 7.69 3.117-.487 5.889-.052 8.678 1.642"/>
        <path fill="#231F20" d="M128.546 13.834c-3.257 1.127-6.138-.325-9.54-1.113 2.869-1.475 5.444-2.066 8.223-1.72l.351-.318c-2.004-1.936-3.19-4.206-3.297-7.244 1.136.842 2.038 1.503 2.93 2.175 1.556 1.172 2.758 2.59 3.32 4.447.648 2.137.212 3.012-1.987 3.773M119.47 9.5c-2.37.999-4.799 1.135-7.35.112 1.84-1.836 4.111-1.943 6.512-2.125-1.932-1.52-2.914-3.414-3.551-6.013 2.437 1.499 4.628 2.528 5.629 4.955.617 1.498.124 2.497-1.24 3.071"/>
        <g transform="matrix(-1 0 0 1 68.846 .491)">
            <mask id="f" fill="#fff">
                <use xlink:href="#e"/>
            </mask>
            <path fill="#231F20" d="M6.621 5.87c.394.327 1.066.571.874 1.21-.25.835-1.033.397-1.546.388-2.052-.036-3.74.808-5.578 2.266 2.932.628 5.52 1.216 8.072.052 1.97-.9 2.414-2.393 1.398-4.384-1.295-2.54-3.588-3.78-6.255-5.367.755 2.492 1.366 4.453 3.035 5.836" mask="url(#f)"/>
        </g>
        <path fill="#231F20" d="M117.038 8.329c-4.062.245-6.73-1.502-8.851-4.89 3.65.417 6.797 1.215 8.851 4.89M63.929 6.382c1.138-2.755 4.095-4.36 6.884-3.822-1.59 2.646-3.793 3.917-6.884 3.822M17.661 59.826c3.095-4.668 7.366-7.527 12.828-9.044-1.229 2.42-2.262 4.632-3.447 6.753-2.263 4.048-5.194 7.28-9.766 8.61-1.327.386-2.044.168-2.926-.9-5.11-6.193-3.402-13.215-2.608-20.539 3.681 4.502 5.607 9.255 5.531 14.804l.388.316M35.843 25.055c3.222-1.78 6.547-1.832 10.382-.737-1.96 1.186-3.545 2.152-5.136 3.105-2.083 1.247-4.318 1.718-6.746 1.518-1.929-.158-2.753-1.068-2.855-3.022-.251-4.812 2.606-8.076 5.318-11.672.714 3.783.104 7.15-1.245 10.421l.282.387"/>
    </g>
</svg>
