<svg xmlns="http://www.w3.org/2000/svg" width="567" height="502" viewBox="0 0 567 502">
    <defs>
        <linearGradient id="a" x1="50%" x2="50%" y1="100%" y2=".036%">
            <stop offset="0%" stop-color="gray" stop-opacity=".25"/>
            <stop offset="54%" stop-color="gray" stop-opacity=".12"/>
            <stop offset="100%" stop-color="gray" stop-opacity=".1"/>
        </linearGradient>
        <linearGradient id="b" x1="50%" x2="50%" y1="99.957%" y2="0%">
            <stop offset="0%" stop-color="gray" stop-opacity=".25"/>
            <stop offset="54%" stop-color="gray" stop-opacity=".12"/>
            <stop offset="100%" stop-color="gray" stop-opacity=".1"/>
        </linearGradient>
        <linearGradient id="c" x1="49.993%" x2="49.993%" y1="100.005%" y2="-.002%">
            <stop offset="0%" stop-color="gray" stop-opacity=".25"/>
            <stop offset="54%" stop-color="gray" stop-opacity=".12"/>
            <stop offset="100%" stop-color="gray" stop-opacity=".1"/>
        </linearGradient>
        <linearGradient id="d" x1="50.021%" x2="50.021%" y1="0%" y2="100%">
            <stop offset="0%" stop-color="#E0E0E0"/>
            <stop offset="31%" stop-color="#FCCC63"/>
            <stop offset="77%" stop-color="#F55F44"/>
        </linearGradient>
        <linearGradient id="e" x1="50%" x2="50%" y1="0%" y2="100%">
            <stop offset="0%" stop-color="#E0E0E0"/>
            <stop offset="31%" stop-color="#FCCC63"/>
            <stop offset="77%" stop-color="#F55F44"/>
        </linearGradient>
        <linearGradient id="f" x1="49.972%" x2="49.972%" y1="99.913%" y2="-.087%">
            <stop offset="0%" stop-color="gray" stop-opacity=".25"/>
            <stop offset="54%" stop-color="gray" stop-opacity=".12"/>
            <stop offset="100%" stop-color="gray" stop-opacity=".1"/>
        </linearGradient>
        <linearGradient id="g" x1="50.289%" x2="50.289%" y1="99.999%" y2=".187%">
            <stop offset="0%" stop-color="gray" stop-opacity=".25"/>
            <stop offset="54%" stop-color="gray" stop-opacity=".12"/>
            <stop offset="100%" stop-color="gray" stop-opacity=".1"/>
        </linearGradient>
    </defs>
    <g fill="none" fill-rule="evenodd" transform="rotate(39 387.492 248.71)">
        <circle cx="8.975" cy="8.882" r="8.566" fill="url(#a)" fill-rule="nonzero" opacity=".7" transform="translate(131.79 441.146)"/>
        <circle cx="138.754" cy="449.221" r="9" fill="#000" fill-rule="nonzero" opacity=".2"/>
        <circle cx="90.759" cy="269.981" r="3.5" fill="#FFF" fill-rule="nonzero"/>
        <circle cx="331.032" cy="466.586" r="3.5" fill="#FFF" fill-rule="nonzero"/>
        <circle cx="190.723" cy="482.412" r="2.5" fill="#FFF" fill-rule="nonzero"/>
        <circle cx="605.166" cy="395.148" r="2.5" fill="#FFF" fill-rule="nonzero"/>
        <circle cx="499.36" cy="224.763" r="2.5" fill="#FFF" fill-rule="nonzero"/>
        <circle cx="650.714" cy="306.794" r="2.5" fill="#FFF" fill-rule="nonzero"/>
        <circle cx="147.444" cy="163.601" r="3.5" fill="#FFF" fill-rule="nonzero"/>
        <path fill="#FFF" fill-rule="nonzero" d="M57.488 389.241H54.58v-2.91h-1.185v2.91h-2.907v1.186h2.907v2.904h1.185v-2.904h2.908zM132.436 386.453h-2.908v-2.91h-1.184v2.91h-2.908v1.186h2.908v2.904h1.184v-2.904h2.908zM239.484 450.319h-2.908v-2.91h-1.185v2.91h-2.907v1.186h2.907v2.903h1.185v-2.903h2.908zM392.173 84.121h-2.079v-2.078h-.843v2.078h-2.078v.843h2.078v2.079h.843v-2.079h2.079zM586.578 209.782h-2.079v-2.078h-.843v2.078h-2.078v.844h2.078v2.078h.843v-2.078h2.079zM471.188 292.928h-2.078v-2.078h-.843v2.078h-2.079v.844h2.079v2.078h.843v-2.078h2.078zM5.775 344.263H3.696v-2.079h-.843v2.079H.775v.843h2.078v2.078h.843v-2.078h2.079zM61.717 454.66h-2.079v-2.079h-.843v2.079h-2.078v.843h2.078v2.078h.843v-2.078h2.079zM238.91 101.43h-2.078V99.35h-.844v2.079h-2.078v.843h2.078v2.078h.844v-2.078h2.078zM153.26 300.75h-2.079v-2.077h-.843v2.078h-2.079v.843h2.079v2.079h.843v-2.079h2.078zM172.756 243.787h-2.079v-2.078h-.843v2.078h-2.078v.843h2.078v2.079h.843v-2.079h2.079z"/>
        <circle cx="6.581" cy="6.31" r="6.24" fill="url(#b)" fill-rule="nonzero" opacity=".7" transform="translate(444.508 360.358)"/>
        <circle cx="448.491" cy="363.75" r="6.5" fill="#000" fill-rule="nonzero" opacity=".2"/>
        <circle cx="468.781" cy="414.23" r="6.5" fill="#000" fill-rule="nonzero" opacity=".2"/>
        <path fill="url(#c)" fill-rule="nonzero" d="M191.98 202.224a101.803 101.803 0 0 0-11.546-47.422c-3.622-6.877-6.928-11.145-9.475-13.773a6.771 6.771 0 0 0-7.746-1.488 7.022 7.022 0 0 0-2.712 1.745c-3.437 3.557-6.545 8.26-9.237 13.259a102.231 102.231 0 0 0-12.12 48.74v10.196h-6.552V94.918c0-24.845-5.568-49.353-16.495-71.088-5.172-10.301-9.897-16.703-13.519-20.636A9.376 9.376 0 0 0 95.535.01a9.376 9.376 0 0 0-7.043 3.185c-4.91 5.329-9.343 12.376-13.196 19.865-11.474 22.21-17.3 47.423-17.3 72.991v117.384h-5.661v-10.69a102.205 102.205 0 0 0-12.12-48.706c-2.712-5-5.82-9.702-9.238-13.259a6.785 6.785 0 0 0-7.917-1.436l.237.125a7.1 7.1 0 0 0-2.21 1.542c-2.54 2.634-5.846 6.896-9.468 13.772A101.803 101.803 0 0 0 .072 202.205V379.38h20.217l-2.23 14.563V437.5h16.534v-43.556l-2.21-14.57h19.925V218.006h5.661v160.67h16.146l-2.316 15.268V437.5h16.534v-43.556l-2.316-15.287h21.774l-2.33 15.287V437.5h16.535v-43.556l-2.316-15.287h12.892v-160.63h6.552v161.611h5.311v-.243H162l-2.204 14.55v43.555h16.535v-43.556l-2.21-14.57h17.86V202.225z" opacity=".7" transform="translate(206.939 .76)"/>
        <path fill="#535461" fill-rule="nonzero" d="M244.378 384.386h-13l2.323-18h8.354z"/>
        <path fill="#000" fill-rule="nonzero" d="M232.636 373.988h12.049l-.808-4.472h-10.434z" opacity=".1"/>
        <path fill="#535461" fill-rule="nonzero" d="M376.805 382.662h-13l2.319-18h8.363z"/>
        <path fill="#000" fill-rule="nonzero" d="M366.135 372.727h11.746l-.786-4.472H366.92z" opacity=".1"/>
        <path fill="#535461" fill-rule="nonzero" d="M292.79 383.786h-13l2.317-18h8.364z"/>
        <path fill="#000" fill-rule="nonzero" d="M281.892 372.76h12.056l-.807-4.473H282.7z" opacity=".1"/>
        <path fill="#535461" fill-rule="nonzero" d="M326.84 384.52h-13l2.318-18h8.358z"/>
        <path fill="#000" fill-rule="nonzero" d="M313.538 372.884h11.746l-.793-4.472h-10.167z" opacity=".1"/>
        <path fill="#535461" fill-rule="nonzero" d="M246.327 208.914h110v5h-110z"/>
        <path fill="#E0E0E0" fill-rule="nonzero" d="M373.447 139.108a6.219 6.219 0 0 0-4.625-2.067c-1.763 0-3.443.75-4.626 2.067-3.22 3.461-6.134 8.035-8.676 12.898a102.453 102.453 0 0 0-11.36 47.382V371.04h48.997V198.664a102.094 102.094 0 0 0-10.825-46.158c-3.404-6.686-6.5-10.871-8.885-13.398zM231.583 139.425a6.219 6.219 0 0 1 4.625-2.067c1.763 0 3.443.75 4.626 2.067 3.227 3.461 6.134 8.035 8.682 12.898a102.532 102.532 0 0 1 11.361 47.382v171.653H211.88V198.98a102.094 102.094 0 0 1 10.826-46.158c3.397-6.686 6.493-10.871 8.878-13.398z"/>
        <path fill="#535461" fill-rule="nonzero" d="M212.236 204.002l12 .053v12.947h-12zM249.247 203.626l12 .053v12.947h-12zM346.847 201.797l12 .053v12.947h-12zM380.75 203.938l12 .054v12.946h-12z"/>
        <path fill="#000" fill-rule="nonzero" d="M250.096 151.465c-2.54-4.844-5.437-9.4-8.654-12.847a6.164 6.164 0 0 0-7.377-1.396c.698.35 1.328.823 1.862 1.396 3.21 3.448 6.114 8.003 8.647 12.847a101.975 101.975 0 0 1 11.324 47.194v170.957h5.522v-170.95a102.06 102.06 0 0 0-11.324-47.2zM358.39 152.671c2.594-4.844 5.567-9.4 8.854-12.847a6.612 6.612 0 0 1 2.186-1.534c-2.506-1.078-5.432-.46-7.266 1.534-3.294 3.448-6.267 8.003-8.86 12.847a100.147 100.147 0 0 0-11.594 47.193v170.984h5.087v-170.97a100.07 100.07 0 0 1 11.593-47.207z" opacity=".1"/>
        <path fill="url(#d)" fill-rule="nonzero" d="M237.135 425.44h-.356c-3.491 0-6.322-3.37-6.322-7.526V383.44h13v34.474c0 1.996-.666 3.91-1.851 5.322-1.186 1.411-2.794 2.204-4.47 2.204z"/>
        <path fill="url(#e)" fill-rule="nonzero" d="M289.473 428.097h-.362c-3.49-.004-6.319-3.372-6.319-7.526v-34.474h13v34.474c0 4.154-2.828 7.522-6.319 7.526zM318.04 426.834h-.367c-3.486-.011-6.308-3.377-6.308-7.526v-34.474h13v34.474c0 4.156-2.832 7.526-6.325 7.526zM374.896 427.121h-.346c-1.679.003-3.29-.788-4.479-2.2-1.188-1.412-1.856-3.328-1.856-5.326V385.12h13v34.474c0 4.154-2.828 7.522-6.32 7.526z"/>
        <path fill="#EEE" fill-rule="nonzero" d="M310.414 5.222a8.605 8.605 0 0 0-6.61-3.106 8.605 8.605 0 0 0-6.611 3.106c-4.58 5.201-8.767 12.072-12.43 19.385-10.768 21.674-16.237 46.279-16.237 71.227v276.282h70V94.725c0-24.242-5.234-48.18-15.466-69.366-4.808-10.052-9.237-16.302-12.646-20.137z"/>
        <rect width="37" height="18" x="283.319" y="35.38" fill="#535461" fill-rule="nonzero" rx="9"/>
        <path fill="#000" fill-rule="nonzero" d="M269.29 102.892h69.286v4.11H269.29z" opacity=".1"/>
        <path fill="url(#f)" fill-rule="nonzero" d="M459.646 204.505a23.036 23.036 0 0 0-6.7-6.16c-8.194-4.934-18.468-3.992-25.713 2.357-7.245 6.35-9.914 16.751-6.681 26.032 3.233 9.282 11.678 15.462 21.137 15.468.479 0 .957 0 1.423-.055 8.263-.544 15.573-5.784 19.03-13.64 3.455-7.857 2.5-17.06-2.49-23.961l-.006-.041z"/>
        <path fill="#000" fill-rule="nonzero" d="M461.844 220.041c-.002 11.078-8.61 20.248-19.664 20.948-.433 0-.88.045-1.326.045a21.002 21.002 0 0 1-13.505-37.09 20.994 20.994 0 0 1 24.003-2.089 21.082 21.082 0 0 1 6.249 5.538 20.899 20.899 0 0 1 4.243 12.648z" opacity=".2"/>
        <path fill="#000" fill-rule="nonzero" d="M436.243 202.973a30.208 30.208 0 0 0-3.497 1.287c-.745.284-1.385.684-1.871 1.17-.493.5-.51 1.158-.043 1.67.57.546 1.669.626 2.637.667 1.016.09 2.05.018 3.02-.212a6.938 6.938 0 0 0 1.763-.893l2.016-1.277c.722-.444 1.445-1.055 1.163-1.68-.339-.455-.983-.758-1.713-.808-1.737-.236-3.539-.015-5.057.62" opacity=".1"/>
        <circle cx="1" cy=".91" r="1" fill="#000" fill-rule="nonzero" opacity=".1" transform="translate(426.78 228.326)"/>
        <ellipse cx="5.686" cy="5.5" fill="#000" fill-rule="nonzero" opacity=".1" rx="5.297" ry="4.919" transform="translate(445.411 213.46)"/>
        <path fill="#000" fill-rule="nonzero" d="M459.596 204.646a5.693 5.693 0 1 1-6.446-5.707 21.727 21.727 0 0 1 6.446 5.707zM458.414 230.965c-3.915 5.366-10.151 8.726-16.948 9.133 0-.3-.042-.6-.042-.907.004-3.871 2.272-7.411 5.865-9.15 3.592-1.74 7.895-1.382 11.125.924z" opacity=".1"/>
        <path fill="url(#g)" fill-rule="nonzero" d="M166.692 326.41a16.59 16.59 0 0 0-4.903-4.345 16.467 16.467 0 0 0-18.9 1.564 16.512 16.512 0 0 0-4.918 18.337 16.483 16.483 0 0 0 15.577 10.83c.35 0 .687 0 1.044-.034a16.482 16.482 0 0 0 13.871-9.578 16.515 16.515 0 0 0-1.785-16.774h.014z"/>
        <path fill="#000" fill-rule="nonzero" d="M169.54 335.628c-.001 8.443-6.563 15.432-14.99 15.965h-1.01a16.001 16.001 0 0 1-10.284-28.255 16.003 16.003 0 0 1 18.284-1.604 16.022 16.022 0 0 1 4.764 4.24 15.914 15.914 0 0 1 3.237 9.654z" opacity=".2"/>
        <path fill="#000" fill-rule="nonzero" d="M148.083 325.568c-.77.36-1.511.788-2.218 1.28-.47.29-.877.69-1.19 1.172a1.67 1.67 0 0 0 0 1.671c.441.48 1.052.723 1.67.666.647.091 1.304.02 1.922-.21.418-.227.799-.53 1.125-.897l1.277-1.273c.447-.449.934-1.057.736-1.679-.204-.463-.618-.772-1.085-.81a4.177 4.177 0 0 0-3.204.622" opacity=".1"/>
        <circle cx=".965" cy=".97" r="1" fill="#000" fill-rule="nonzero" opacity=".1" transform="translate(144.917 339.48)"/>
        <ellipse cx="3.612" cy="2.444" fill="#000" fill-rule="nonzero" opacity=".1" rx="3.059" ry="2.428" transform="translate(159.33 332.647)"/>
        <path fill="#000" fill-rule="nonzero" d="M167.566 326.45a5.077 5.077 0 1 1-5.712-5.076 19.182 19.182 0 0 1 5.712 5.077zM167.322 344.563c-2.63 4.752-6.82 7.729-11.387 8.09v-.847c.003-3.428 1.527-6.562 3.94-8.103 2.413-1.54 5.304-1.224 7.474.818l-.027.042z" opacity=".1"/>
        <path d="M509.778 353.83l13 8.33-10.15 13.67"/>
        <circle cx="587.235" cy="281.636" r="1" fill="#FFF" fill-rule="nonzero"/>
    </g>
</svg>
